<?xml version="1.0" encoding="UTF-8"?>
<svg width="700px" height="700px" viewBox="0 0 700 700" version="1.1" xmlns="http://www.w3.org/2000/svg" xmlns:xlink="http://www.w3.org/1999/xlink">
    <!-- Generator: Sketch 43.2 (39069) - http://www.bohemiancoding.com/sketch -->
    <title>AndrewLogo</title>
    <desc>Created with Sketch.</desc>
    <defs></defs>
    <g id="Page-1" stroke="none" stroke-width="1" fill="none" fill-rule="evenodd">
        <g id="AndrewLogo" fill="#FFFFFF">
            <path d="M350,700 C156.700338,700 0,543.299662 0,350 C0,156.700338 156.700338,0 350,0 C543.299662,0 700,156.700338 700,350 C700,543.299662 543.299662,700 350,700 Z M347.270553,107.723478 L139.729447,227.547392 C138.774546,228.098704 138,229.439973 138,230.542882 L138,470.190709 C138,471.293333 138.7743,472.634744 139.729447,473.186199 L347.270553,593.010112 C348.225454,593.561424 349.7743,593.561567 350.729447,593.010112 L558.270553,473.186199 C559.225454,472.634887 560,471.293618 560,470.190709 L560,230.542882 C560,229.440258 559.2257,228.098846 558.270553,227.547392 L350.729447,107.723478 C349.774546,107.172166 348.2257,107.172024 347.270553,107.723478 Z M349,139 L527.500015,448.410498 L350.0088,380.770067 L172.517584,448.410498 L349,139 Z" id="Combined-Shape"></path>
        </g>
    </g>
</svg>